<?xml version="1.0" encoding="UTF-8" standalone="no"?> <svg width="64" height="64" viewBox="0 0 64 64" fill="none" xmlns="http://www.w3.org/2000/svg">
<path d="M46 55H44C43.2606 54.9983 42.5473 55.273 42 55.77V54.71C42.0003 53.5948 41.6899 52.5016 41.1034 51.553C40.517 50.6045 39.6778 49.8381 38.68 49.34L34 47V44.65C35.1702 44.2392 36.1839 43.4748 36.9005 42.4625C37.6171 41.4503 38.0014 40.2403 38 39H39C38.999 39.4911 39.1189 39.9748 39.349 40.4086C39.579 40.8424 39.9123 41.213 40.3193 41.4877C40.7264 41.7623 41.1948 41.9327 41.6832 41.9836C42.1716 42.0346 42.665 41.9647 43.12 41.78C43.2874 42.4162 43.6607 42.9791 44.1817 43.3808C44.7028 43.7825 45.3421 44.0003 46 44.0003C46.6579 44.0003 47.2972 43.7825 47.8183 43.3808C48.3393 42.9791 48.7126 42.4162 48.88 41.78C49.335 41.9647 49.8284 42.0346 50.3168 41.9836C50.8052 41.9327 51.2736 41.7623 51.6807 41.4877C52.0877 41.213 52.421 40.8424 52.651 40.4086C52.8811 39.9748 53.001 39.4911 53 39C52.9979 38.6203 52.9268 38.2442 52.79 37.89L54.37 38.68C56.3622 39.6795 58.0373 41.2132 59.2081 43.1098C60.3789 45.0064 60.9993 47.1911 61 49.42V57C61 58.0609 60.5786 59.0783 59.8284 59.8284C59.0783 60.5786 58.0609 61 57 61H46V55ZM49.54 50.46C49.7404 50.2777 49.9018 50.0566 50.0142 49.8101C50.1266 49.5636 50.1877 49.2969 50.1939 49.026C50.2001 48.7551 50.1512 48.4859 50.0501 48.2345C49.9491 47.9831 49.798 47.7549 49.6061 47.5636C49.4142 47.3724 49.1855 47.2221 48.9337 47.122C48.682 47.0218 48.4125 46.9739 48.1417 46.981C47.8709 46.9882 47.6043 47.0503 47.3582 47.1636C47.1121 47.2768 46.8916 47.4389 46.71 47.64L46 48.34L45.29 47.64C45.1084 47.4389 44.8879 47.2768 44.6418 47.1636C44.3957 47.0503 44.1291 46.9882 43.8583 46.981C43.5875 46.9739 43.318 47.0218 43.0663 47.122C42.8145 47.2221 42.5858 47.3724 42.3939 47.5636C42.2019 47.7549 42.0509 47.9831 41.9499 48.2345C41.8488 48.4859 41.7999 48.7551 41.8061 49.026C41.8123 49.2969 41.8734 49.5636 41.9858 49.8101C42.0982 50.0566 42.2596 50.2777 42.46 50.46L46 54L49.54 50.46Z" fill="#BDDBFF"/>
<path d="M59 15V21C58.9963 24.1815 57.7308 27.2316 55.4812 29.4812C53.2316 31.7308 50.1815 32.9963 47 33H46C48.3869 33 50.6761 32.0518 52.364 30.364C54.0518 28.6761 55 26.3869 55 24V15H59Z" fill="#BDDBFF"/>
<path d="M59 13V15H48C46.7759 15.0007 45.581 14.6263 44.5762 13.9272C43.5714 13.2281 42.8049 12.238 42.38 11.09C42.1255 10.4227 41.9966 9.71415 42 9V7H53C54.5913 7 56.1174 7.63214 57.2426 8.75736C58.3679 9.88258 59 11.4087 59 13V13Z" fill="#BDDBFF"/>
<path d="M51 7H41C41 4.79 43.24 3 46 3C48.76 3 51 4.79 51 7Z" fill="#BDDBFF"/>
<path d="M46 33H45C43.4237 33.0016 41.8626 32.6923 40.4059 32.0898C38.9493 31.4873 37.6258 30.6034 36.5112 29.4888C35.3966 28.3742 34.5127 27.0507 33.9102 25.5941C33.3077 24.1374 32.9984 22.5763 33 21V16H35C35.6744 15.9988 36.3461 15.9149 37 15.75V24C37 26.3869 37.9482 28.6761 39.636 30.364C41.3239 32.0518 43.613 33 46 33Z" fill="#BDDBFF"/>
<path d="M44 61H42V60.23C42.5473 60.727 43.2606 61.0017 44 61V61Z" fill="#BDDBFF"/>
<path d="M42 9C41.9966 9.71415 42.1255 10.4227 42.38 11.09C41.9028 12.2287 41.169 13.2417 40.2357 14.05C39.3025 14.8584 38.1951 15.4402 37 15.75C36.3461 15.9149 35.6744 15.9988 35 16H33V13C33 11.4087 33.6321 9.88258 34.7574 8.75736C35.8826 7.63214 37.4087 7 39 7H42V9Z" fill="#BDDBFF"/>
<path d="M26 61H22V60.23C22.0424 60.1961 22.0825 60.1593 22.12 60.12C22.399 59.8419 22.6203 59.5115 22.7713 59.1477C22.9223 58.7839 23 58.3939 23 58C23.003 57.5783 22.9152 57.1609 22.7427 56.7762C22.5702 56.3914 22.3169 56.0482 22 55.77V54.71C21.9997 53.5948 22.3101 52.5016 22.8966 51.553C23.483 50.6045 24.3222 49.8381 25.32 49.34L30 47C30 47.5304 30.2107 48.0391 30.5858 48.4142C30.9609 48.7893 31.4696 49 32 49C32.5304 49 33.0391 48.7893 33.4142 48.4142C33.7893 48.0391 34 47.5304 34 47L38.68 49.34C39.6778 49.8381 40.517 50.6045 41.1034 51.553C41.6899 52.5016 42.0003 53.5948 42 54.71V55.77C41.6831 56.0482 41.4298 56.3914 41.2573 56.7762C41.0848 57.1609 40.997 57.5783 41 58C41 58.3939 41.0777 58.7839 41.2287 59.1477C41.3797 59.5115 41.601 59.8419 41.88 60.12C41.9175 60.1593 41.9576 60.1961 42 60.23V61H26Z" fill="#BDDBFF"/>
<path d="M38 35V36L35 34H29L26 36V33C26 31.9391 26.4214 30.9217 27.1716 30.1716C27.9217 29.4214 28.9391 29 30 29H34C34.5255 28.9993 35.0459 29.1024 35.5315 29.3031C36.0171 29.5039 36.4583 29.7985 36.8299 30.1701C37.2015 30.5417 37.4961 30.9829 37.6969 31.4685C37.8976 31.9541 38.0007 32.4745 38 33V35Z" fill="#BDDBFF"/>
<path d="M9 48H3V45.42C3.0007 43.1911 3.6211 41.0063 4.7919 39.1098C5.96271 37.2132 7.63779 35.6795 9.63 34.68L12.14 33.43L14 39L18 36L22 39L23.86 33.43L26 34.5V35H25C24.4701 35.0016 23.9623 35.2128 23.5875 35.5875C23.2128 35.9623 23.0016 36.47 23 37C23.0039 37.5292 23.2159 38.0356 23.5901 38.4099C23.9643 38.7841 24.4708 38.9961 25 39H26C25.9986 40.2402 26.3829 41.4503 27.0995 42.4625C27.8161 43.4748 28.8297 44.2392 30 44.65V47L25.32 49.34C24.3222 49.8381 23.483 50.6045 22.8966 51.553C22.3101 52.5016 21.9997 53.5948 22 54.71V55.77C21.4527 55.2729 20.7394 54.9983 20 55H9V48ZM21.54 50.46C21.7404 50.2777 21.9018 50.0566 22.0142 49.8101C22.1266 49.5636 22.1877 49.2968 22.1939 49.026C22.2001 48.7551 22.1512 48.4858 22.0501 48.2345C21.9491 47.9831 21.798 47.7548 21.6061 47.5636C21.4142 47.3724 21.1855 47.2221 20.9337 47.122C20.682 47.0218 20.4125 46.9739 20.1417 46.981C19.8709 46.9882 19.6043 47.0503 19.3582 47.1635C19.1121 47.2768 18.8916 47.4389 18.71 47.64L18 48.34L17.29 47.64C17.1084 47.4389 16.8879 47.2768 16.6418 47.1635C16.3957 47.0503 16.1291 46.9882 15.8583 46.981C15.5875 46.9739 15.318 47.0218 15.0663 47.122C14.8145 47.2221 14.5858 47.3724 14.3939 47.5636C14.202 47.7548 14.0509 47.9831 13.9499 48.2345C13.8488 48.4858 13.7999 48.7551 13.8061 49.026C13.8123 49.2968 13.8734 49.5636 13.9858 49.8101C14.0982 50.0566 14.2596 50.2777 14.46 50.46L18 54L21.54 50.46Z" fill="#BDDBFF"/>
<path d="M28 8V13H27C26.2044 13 25.4413 12.6839 24.8787 12.1213C24.3161 11.5587 24 10.7956 24 10V5H25C25.7956 5 26.5587 5.31607 27.1213 5.87868C27.6839 6.44129 28 7.20435 28 8V8Z" fill="#BDDBFF"/>
<path d="M22 60.23V61H20C20.7394 61.0017 21.4527 60.727 22 60.23V60.23Z" fill="#BDDBFF"/>
<path d="M12 5V10C12 10.7956 11.6839 11.5587 11.1213 12.1213C10.5587 12.6839 9.79565 13 9 13H8V8C8 7.20435 8.31607 6.44129 8.87868 5.87868C9.44129 5.31607 10.2044 5 11 5H12Z" fill="#BDDBFF"/>
<path d="M21 10H15V12H21V10Z" fill="#3D9AE2"/>
<path d="M21 6H15V8H21V6Z" fill="#3D9AE2"/>
<path d="M14 21C14.7911 21 15.5645 20.7654 16.2223 20.3259C16.8801 19.8864 17.3928 19.2616 17.6955 18.5307C17.9983 17.7998 18.0775 16.9956 17.9231 16.2196C17.7688 15.4437 17.3878 14.731 16.8284 14.1716C16.269 13.6122 15.5563 13.2312 14.7804 13.0769C14.0044 12.9225 13.2002 13.0017 12.4693 13.3045C11.7384 13.6072 11.1136 14.1199 10.6741 14.7777C10.2346 15.4355 10 16.2089 10 17C10 18.0609 10.4214 19.0783 11.1716 19.8284C11.9217 20.5786 12.9391 21 14 21ZM14 15C14.3956 15 14.7822 15.1173 15.1111 15.3371C15.44 15.5568 15.6964 15.8692 15.8478 16.2346C15.9991 16.6001 16.0387 17.0022 15.9616 17.3902C15.8844 17.7781 15.6939 18.1345 15.4142 18.4142C15.1345 18.6939 14.7781 18.8844 14.3902 18.9616C14.0022 19.0387 13.6001 18.9991 13.2346 18.8478C12.8692 18.6964 12.5568 18.44 12.3371 18.1111C12.1173 17.7822 12 17.3956 12 17C12 16.4696 12.2107 15.9609 12.5858 15.5858C12.9609 15.2107 13.4696 15 14 15V15Z" fill="#3D9AE2"/>
<path d="M22 13C21.2089 13 20.4355 13.2346 19.7777 13.6741C19.1199 14.1136 18.6072 14.7384 18.3045 15.4693C18.0017 16.2002 17.9225 17.0044 18.0769 17.7804C18.2312 18.5563 18.6122 19.269 19.1716 19.8284C19.731 20.3878 20.4437 20.7688 21.2196 20.9231C21.9956 21.0775 22.7998 20.9983 23.5307 20.6955C24.2616 20.3928 24.8864 19.8801 25.3259 19.2223C25.7654 18.5645 26 17.7911 26 17C26 15.9391 25.5786 14.9217 24.8284 14.1716C24.0783 13.4214 23.0609 13 22 13V13ZM22 19C21.6044 19 21.2178 18.8827 20.8889 18.6629C20.56 18.4432 20.3036 18.1308 20.1522 17.7654C20.0009 17.3999 19.9613 16.9978 20.0384 16.6098C20.1156 16.2219 20.3061 15.8655 20.5858 15.5858C20.8655 15.3061 21.2219 15.1156 21.6098 15.0384C21.9978 14.9613 22.3999 15.0009 22.7654 15.1522C23.1308 15.3036 23.4432 15.56 23.6629 15.8889C23.8827 16.2178 24 16.6044 24 17C24 17.5304 23.7893 18.0391 23.4142 18.4142C23.0391 18.7893 22.5304 19 22 19Z" fill="#3D9AE2"/>
<path d="M23 16H21V18H23V16Z" fill="#3D9AE2"/>
<path d="M15 16H13V18H15V16Z" fill="#3D9AE2"/>
<path d="M21.307 23.75L19.984 22.25C19.429 22.7184 18.7262 22.9754 18 22.9754C17.2738 22.9754 16.571 22.7184 16.016 22.25L14.693 23.75C15.6064 24.5554 16.7822 24.9998 18 24.9998C19.2178 24.9998 20.3936 24.5554 21.307 23.75V23.75Z" fill="#3D9AE2"/>
<path d="M54.82 37.79L50 35.38V33.64C52.8435 32.961 55.376 31.3452 57.1898 29.0525C59.0037 26.7598 59.9935 23.9235 60 21V13C59.9979 11.1441 59.2597 9.36489 57.9474 8.05259C56.6351 6.7403 54.8559 6.00212 53 6H51.88C51.32 3.72 48.9 2 46 2C43.1 2 40.68 3.72 40.12 6H39C37.1441 6.00212 35.3649 6.7403 34.0526 8.05259C32.7403 9.36489 32.0021 11.1441 32 13V21C32.003 23.4869 32.7216 25.9204 34.07 28.01C34.04 28.01 34.02 28 34 28H30C28.6945 28.0023 27.4417 28.5151 26.5092 29.4289C25.5768 30.3426 25.0387 31.5848 25.01 32.89L24.98 32.87C24.9635 32.7291 24.9165 32.5934 24.8422 32.4726C24.768 32.3517 24.6682 32.2484 24.55 32.17L22 30.46V29.16C23.6252 28.4481 25.0323 27.3177 26.0777 25.884C27.123 24.4504 27.7691 22.765 27.95 21H28.5C29.4283 21 30.3185 20.6313 30.9749 19.9749C31.6313 19.3185 32 18.4283 32 17.5C32 16.5717 31.6313 15.6815 30.9749 15.0251C30.3185 14.3687 29.4283 14 28.5 14H28C28.2652 14 28.5196 13.8946 28.7071 13.7071C28.8946 13.5196 29 13.2652 29 13V8C29 6.93913 28.5786 5.92172 27.8284 5.17157C27.0783 4.42143 26.0609 4 25 4H24.64C23.0443 2.70755 21.0535 2.00159 19 2H17C14.9465 2.00159 12.9557 2.70755 11.36 4H11C9.93913 4 8.92172 4.42143 8.17157 5.17157C7.42143 5.92172 7 6.93913 7 8V13C7 13.2652 7.10536 13.5196 7.29289 13.7071C7.48043 13.8946 7.73478 14 8 14H7.5C6.57174 14 5.6815 14.3687 5.02513 15.0251C4.36875 15.6815 4 16.5717 4 17.5C4 18.4283 4.36875 19.3185 5.02513 19.9749C5.6815 20.6313 6.57174 21 7.5 21H8.05C8.23086 22.765 8.87697 24.4504 9.92232 25.884C10.9677 27.3177 12.3748 28.4481 14 29.16V30.46L11.45 32.17C11.3318 32.2484 11.232 32.3517 11.1578 32.4726C11.0835 32.5934 11.0365 32.7291 11.02 32.87L9.18 33.79C7.01716 34.8654 5.19842 36.5246 3.92954 38.5799C2.66065 40.6352 1.99227 43.0046 2 45.42V57C2 58.3261 2.52678 59.5979 3.46447 60.5355C4.40215 61.4732 5.67392 62 7 62H57C58.3261 62 59.5979 61.4732 60.5355 60.5355C61.4732 59.5979 62 58.3261 62 57V49.42C62.0077 47.0046 61.3393 44.6352 60.0705 42.5799C58.8016 40.5246 56.9828 38.8654 54.82 37.79V37.79ZM28 16H28.5C28.8978 16 29.2794 16.158 29.5607 16.4393C29.842 16.7206 30 17.1022 30 17.5C30 17.8978 29.842 18.2794 29.5607 18.5607C29.2794 18.842 28.8978 19 28.5 19H28V16ZM8 19H7.5C7.10217 19 6.72064 18.842 6.43934 18.5607C6.15803 18.2794 6 17.8978 6 17.5C6 17.1022 6.15803 16.7206 6.43934 16.4393C6.72064 16.158 7.10217 16 7.5 16H8V19ZM51.95 38.59C51.9808 38.7246 51.9975 38.862 52 39C51.9958 39.3259 51.9126 39.6458 51.7576 39.9325C51.6025 40.2191 51.3803 40.4639 51.1099 40.6458C50.8395 40.8277 50.529 40.9413 50.2051 40.9769C49.8811 41.0124 49.5534 40.9689 49.25 40.85C49.118 40.7996 48.977 40.7771 48.8358 40.784C48.6947 40.7908 48.5565 40.8269 48.43 40.89C48.3057 40.955 48.1956 41.0442 48.1063 41.1524C48.017 41.2606 47.9502 41.3856 47.91 41.52C47.8011 41.9439 47.5544 42.3194 47.2086 42.5876C46.8628 42.8558 46.4376 43.0014 46 43.0014C45.5624 43.0014 45.1372 42.8558 44.7914 42.5876C44.4456 42.3194 44.1989 41.9439 44.09 41.52C44.0498 41.3856 43.983 41.2606 43.8937 41.1524C43.8044 41.0442 43.6943 40.955 43.57 40.89C43.4436 40.8268 43.3054 40.7907 43.1642 40.7838C43.023 40.7769 42.882 40.7994 42.75 40.85C42.2627 41.0407 41.7203 41.0334 41.2383 40.8298C40.7563 40.6262 40.3729 40.2423 40.17 39.76C40.6082 39.5752 40.9958 39.2881 41.3003 38.9227C41.6048 38.5574 41.8173 38.1244 41.92 37.66L42.29 37.47C42.5824 38.2158 43.0928 38.8561 43.7546 39.3075C44.4164 39.7589 45.1989 40.0003 46 40.0003C46.8011 40.0003 47.5836 39.7589 48.2454 39.3075C48.9072 38.8561 49.4176 38.2158 49.71 37.47L51.95 38.59ZM39 34V33C38.9937 32.8325 38.977 32.6655 38.95 32.5C39.9161 33.0035 40.9405 33.3864 42 33.64V35.38L41.62 35.57C41.3644 35.0972 40.9863 34.702 40.5253 34.4258C40.0643 34.1495 39.5374 34.0025 39 34ZM40 37C40 37.2652 39.8946 37.5196 39.7071 37.7071C39.5196 37.8946 39.2652 38 39 38V36C39.2652 36 39.5196 36.1054 39.7071 36.2929C39.8946 36.4804 40 36.7348 40 37ZM44 36V33.95C44.33 33.97 44.66 34 45 34H47C47.34 34 47.67 33.97 48 33.95V36C48 36.5304 47.7893 37.0391 47.4142 37.4142C47.0391 37.7893 46.5304 38 46 38C45.4696 38 44.9609 37.7893 44.5858 37.4142C44.2107 37.0391 44 36.5304 44 36ZM58 21C58.0017 22.4387 57.7199 23.8635 57.1709 25.1933C56.6218 26.523 55.8162 27.7316 54.8 28.75C55.5879 27.2908 56.0003 25.6584 56 24V16H58V21ZM53 8C54.3261 8 55.5979 8.52678 56.5355 9.46447C57.4732 10.4021 58 11.6739 58 13V14H48C46.9785 13.9962 45.9825 13.6812 45.1446 13.097C44.3067 12.5128 43.6667 11.6871 43.31 10.73C43.1045 10.1764 42.9995 9.59052 43 9V8H53ZM46 4C46.7486 3.95584 47.4949 4.11921 48.1565 4.47211C48.8182 4.825 49.3696 5.35372 49.75 6H42.25C42.6304 5.35372 43.1818 4.825 43.8435 4.47211C44.5051 4.11921 45.2514 3.95584 46 4ZM42.38 13.14C43.0272 14.0237 43.873 14.743 44.8492 15.2397C45.8254 15.7365 46.9047 15.997 48 16H54V24C54 26.1217 53.1571 28.1566 51.6569 29.6569C50.1566 31.1571 48.1217 32 46 32C43.8783 32 41.8434 31.1571 40.3431 29.6569C38.8429 28.1566 38 26.1217 38 24V16.48C39.7705 15.8468 41.3009 14.6798 42.38 13.14V13.14ZM34 13C34 11.6739 34.5268 10.4021 35.4645 9.46447C36.4021 8.52678 37.6739 8 39 8H41V9C41.0038 9.67583 41.1118 10.347 41.32 10.99C40.8814 11.9155 40.2462 12.734 39.4586 13.3886C38.671 14.0432 37.75 14.5181 36.76 14.78C36.1848 14.9263 35.5935 15.0002 35 15H34V13ZM34 21V17H35C35.33 17 35.67 16.97 36 16.94V24C35.9997 25.6584 36.4121 27.2908 37.2 28.75C36.1838 27.7316 35.3782 26.523 34.8291 25.1933C34.2801 23.8635 33.9983 22.4387 34 21V21ZM27 33C27.0024 32.2051 27.3192 31.4434 27.8813 30.8813C28.4434 30.3192 29.2051 30.0024 30 30H34C34.7949 30.0024 35.5566 30.3192 36.1187 30.8813C36.6808 31.4434 36.9976 32.2051 37 33V34.13L35.55 33.17C35.3882 33.0588 35.1963 32.9995 35 33H29C28.8037 32.9995 28.6118 33.0588 28.45 33.17L27 34.13V33ZM27 36.54L29.3 35H34.7L37 36.54V39C37 40.3261 36.4732 41.5979 35.5355 42.5355C34.5979 43.4732 33.3261 44 32 44C30.6739 44 29.4021 43.4732 28.4645 42.5355C27.5268 41.5979 27 40.3261 27 39V36.54ZM33 45.92V47C33 47.2652 32.8946 47.5196 32.7071 47.7071C32.5196 47.8946 32.2652 48 32 48C31.7348 48 31.4804 47.8946 31.2929 47.7071C31.1054 47.5196 31 47.2652 31 47V45.92C31.6624 46.0267 32.3376 46.0267 33 45.92V45.92ZM25 36V38C24.7348 38 24.4804 37.8946 24.2929 37.7071C24.1054 37.5196 24 37.2652 24 37C24 36.7348 24.1054 36.4804 24.2929 36.2929C24.4804 36.1054 24.7348 36 25 36ZM22.81 33.41L21.49 37.37L19.32 35.74L21.32 32.41L22.81 33.41ZM18 34.06L16 30.72V29.8C17.32 30.0667 18.68 30.0667 20 29.8V30.72L18 34.06ZM25 6C25.5299 6.00158 26.0377 6.2128 26.4125 6.58753C26.7872 6.96227 26.9984 7.47005 27 8V12C26.4701 11.9984 25.9623 11.7872 25.5875 11.4125C25.2128 11.0377 25.0016 10.5299 25 10V6ZM9 8C9.00158 7.47005 9.2128 6.96227 9.58753 6.58753C9.96226 6.2128 10.4701 6.00158 11 6V10C10.9984 10.5299 10.7872 11.0377 10.4125 11.4125C10.0377 11.7872 9.52995 11.9984 9 12V8ZM10 20V13.86C10.8565 13.6389 11.6155 13.1401 12.1583 12.4416C12.7011 11.7432 12.9971 10.8846 13 10V5.26C14.174 4.44265 15.5695 4.00306 17 4H19C20.4305 4.00306 21.826 4.44265 23 5.26V10C23.0029 10.8846 23.2989 11.7432 23.8417 12.4416C24.3845 13.1401 25.1435 13.6389 26 13.86V20C26 22.1217 25.1571 24.1566 23.6569 25.6569C22.1566 27.1571 20.1217 28 18 28C15.8783 28 13.8434 27.1571 12.3431 25.6569C10.8429 24.1566 10 22.1217 10 20ZM14.68 32.41L16.68 35.74L14.51 37.37L13.19 33.41L14.68 32.41ZM17 60H7C6.20508 59.9976 5.4434 59.6808 4.8813 59.1187C4.31921 58.5566 4.00237 57.7949 4 57V49H8V54.59L6.29 56.29L7.71 57.71L9.41 56H17V60ZM15.17 49.76C14.9826 49.5712 14.8775 49.316 14.8775 49.05C14.8775 48.784 14.9826 48.5288 15.17 48.34C15.3596 48.1541 15.6145 48.0499 15.88 48.0499C16.1455 48.0499 16.4004 48.1541 16.59 48.34L17.29 49.05C17.4788 49.2374 17.734 49.3425 18 49.3425C18.266 49.3425 18.5212 49.2374 18.71 49.05L19.41 48.34C19.5032 48.2468 19.6139 48.1728 19.7358 48.1223C19.8576 48.0719 19.9881 48.0459 20.12 48.0459C20.2519 48.0459 20.3824 48.0719 20.5042 48.1223C20.6261 48.1728 20.7368 48.2468 20.83 48.34C20.9232 48.4332 20.9972 48.5439 21.0477 48.6658C21.0981 48.7876 21.1241 48.9181 21.1241 49.05C21.1241 49.1819 21.0981 49.3124 21.0477 49.4342C20.9972 49.5561 20.9232 49.6668 20.83 49.76L18 52.59L15.17 49.76ZM21.65 51.76C21.3061 52.514 21.0995 53.3234 21.04 54.15C20.7015 54.054 20.3518 54.0036 20 54H19.41L21.65 51.76ZM20 60H19V56H20C20.5304 56 21.0391 56.2107 21.4142 56.5858C21.7893 56.9609 22 57.4696 22 58C22 58.5304 21.7893 59.0391 21.4142 59.4142C21.0391 59.7893 20.5304 60 20 60ZM18 46.93C17.7219 46.6511 17.3915 46.4298 17.0277 46.2788C16.6639 46.1279 16.2739 46.0502 15.88 46.0502C15.4861 46.0502 15.0961 46.1279 14.7323 46.2788C14.3685 46.4298 14.0381 46.6511 13.76 46.93C13.1982 47.4925 12.8826 48.255 12.8826 49.05C12.8826 49.845 13.1982 50.6075 13.76 51.17L16.59 54H10V43H8V47H4V45.42C3.99404 43.3758 4.56035 41.3708 5.63486 39.6318C6.70937 37.8928 8.24916 36.4892 10.08 35.58L11.56 34.84L13.05 39.32C13.1012 39.4687 13.1867 39.6033 13.2996 39.7128C13.4126 39.8222 13.5497 39.9035 13.7 39.95C13.7958 39.986 13.8977 40.0029 14 40C14.216 39.998 14.426 39.928 14.6 39.8L18 37.25L21.4 39.8C21.574 39.928 21.784 39.998 22 40C22.1023 40.0029 22.2042 39.986 22.3 39.95C22.4503 39.9035 22.5874 39.8222 22.7004 39.7128C22.8133 39.6033 22.8988 39.4687 22.95 39.32L22.99 39.21C23.5381 39.7146 24.255 39.9964 25 40H25.08C25.2464 41.1392 25.6911 42.2198 26.3749 43.146C27.0587 44.0722 27.9603 44.8155 29 45.31V46.38L24.87 48.45C24.1753 48.7954 23.5459 49.259 23.01 49.82C23.1812 49.1832 23.1372 48.5076 22.885 47.8983C22.6327 47.289 22.1863 46.7801 21.6151 46.4506C21.0439 46.1211 20.3798 45.9894 19.7261 46.0761C19.0724 46.1628 18.4656 46.463 18 46.93V46.93ZM41 55.38C40.3614 56.104 40.0062 57.0346 40 58C40.0028 58.705 40.1963 59.3961 40.56 60H39V53H37V60H27V53H25V60H23.44C23.8037 59.3961 23.9972 58.705 24 58C23.9938 57.0346 23.6386 56.104 23 55.38V54.71C22.9974 53.7791 23.2554 52.8661 23.745 52.0743C24.2346 51.2825 24.936 50.6436 25.77 50.23L29.38 48.43C29.6336 48.9044 30.0113 49.301 30.4728 49.5775C30.9342 49.8541 31.4621 50.0001 32 50.0001C32.5379 50.0001 33.0658 49.8541 33.5272 49.5775C33.9887 49.301 34.3663 48.9044 34.62 48.43L38.23 50.23C39.064 50.6436 39.7654 51.2825 40.255 52.0743C40.7446 52.8661 41.0026 53.7791 41 54.71V55.38ZM45 60H44C43.4696 60 42.9609 59.7893 42.5858 59.4142C42.2107 59.0391 42 58.5304 42 58C42 57.4696 42.2107 56.9609 42.5858 56.5858C42.9609 56.2107 43.4696 56 44 56H45V60ZM42.35 51.76L44.59 54H44C43.6482 54.0036 43.2985 54.054 42.96 54.15C42.9017 53.3232 42.6951 52.5136 42.35 51.76ZM43.17 49.76C42.9826 49.5712 42.8775 49.316 42.8775 49.05C42.8775 48.784 42.9826 48.5288 43.17 48.34C43.3596 48.1541 43.6145 48.0499 43.88 48.0499C44.1455 48.0499 44.4004 48.1541 44.59 48.34L45.29 49.05C45.4788 49.2374 45.734 49.3425 46 49.3425C46.266 49.3425 46.5212 49.2374 46.71 49.05L47.41 48.34C47.5032 48.2468 47.6139 48.1728 47.7358 48.1223C47.8576 48.0719 47.9881 48.0459 48.12 48.0459C48.2519 48.0459 48.3824 48.0719 48.5042 48.1223C48.6261 48.1728 48.7368 48.2468 48.83 48.34C48.9232 48.4332 48.9972 48.5439 49.0477 48.6658C49.0981 48.7876 49.1241 48.9181 49.1241 49.05C49.1241 49.1819 49.0981 49.3124 49.0477 49.4342C48.9972 49.5561 48.9232 49.6668 48.83 49.76L46 52.59L43.17 49.76ZM60 57C59.9976 57.7949 59.6808 58.5566 59.1187 59.1187C58.5566 59.6808 57.7949 59.9976 57 60H47V56H54.59L56.29 57.71L57.71 56.29L56 54.59V47H54V54H47.41L50.24 51.17C50.5347 50.8953 50.7712 50.5641 50.9351 50.1962C51.0991 49.8282 51.1873 49.4309 51.1944 49.0281C51.2015 48.6253 51.1274 48.2252 50.9765 47.8516C50.8256 47.4781 50.601 47.1387 50.3162 46.8538C50.0313 46.569 49.6919 46.3444 49.3184 46.1935C48.9448 46.0426 48.5447 45.9685 48.1419 45.9756C47.7391 45.9827 47.3418 46.0709 46.9738 46.2349C46.6058 46.3988 46.2746 46.6353 46 46.93C45.7219 46.6511 45.3914 46.4298 45.0277 46.2788C44.6639 46.1279 44.2739 46.0502 43.88 46.0502C43.4861 46.0502 43.0961 46.1279 42.7323 46.2788C42.3685 46.4298 42.0381 46.6511 41.76 46.93C41.3907 47.3027 41.1253 47.7655 40.9902 48.2725C40.8551 48.7795 40.8551 49.313 40.99 49.82C40.4541 49.259 39.8247 48.7954 39.13 48.45L35 46.38V45.31C35.8576 44.9039 36.6235 44.3274 37.251 43.6156C37.8786 42.9038 38.3546 42.0717 38.65 41.17C39.011 41.7307 39.5067 42.1919 40.092 42.5116C40.6772 42.8313 41.3332 42.9992 42 43C42.1775 43.0016 42.3548 42.9882 42.53 42.96C42.8741 43.5784 43.3772 44.0937 43.9873 44.4524C44.5974 44.8111 45.2923 45.0002 46 45.0002C46.7077 45.0002 47.4026 44.8111 48.0127 44.4524C48.6228 44.0937 49.1259 43.5784 49.47 42.96C49.6452 42.9882 49.8225 43.0016 50 43C50.9558 42.9961 51.8787 42.6501 52.6014 42.0246C53.3242 41.399 53.799 40.5354 53.94 39.59C55.7659 40.5009 57.3008 41.904 58.3716 43.6409C59.4424 45.3779 60.0064 47.3795 60 49.42V57Z" fill="#3D9AE2"/>
<path d="M42 25C42.7911 25 43.5645 24.7654 44.2223 24.3259C44.8801 23.8864 45.3928 23.2616 45.6955 22.5307C45.9983 21.7998 46.0775 20.9956 45.9231 20.2196C45.7688 19.4437 45.3878 18.731 44.8284 18.1716C44.269 17.6122 43.5563 17.2312 42.7804 17.0769C42.0044 16.9225 41.2002 17.0017 40.4693 17.3045C39.7384 17.6072 39.1136 18.1199 38.6741 18.7777C38.2346 19.4355 38 20.2089 38 21C38 22.0609 38.4214 23.0783 39.1716 23.8284C39.9217 24.5786 40.9391 25 42 25ZM42 19C42.3956 19 42.7822 19.1173 43.1111 19.3371C43.44 19.5568 43.6964 19.8692 43.8478 20.2346C43.9991 20.6001 44.0387 21.0022 43.9616 21.3902C43.8844 21.7781 43.6939 22.1345 43.4142 22.4142C43.1345 22.6939 42.7781 22.8844 42.3902 22.9616C42.0022 23.0387 41.6001 22.9991 41.2346 22.8478C40.8692 22.6964 40.5568 22.44 40.3371 22.1111C40.1173 21.7822 40 21.3956 40 21C40 20.4696 40.2107 19.9609 40.5858 19.5858C40.9609 19.2107 41.4696 19 42 19Z" fill="#3D9AE2"/>
<path d="M50 17C49.2089 17 48.4355 17.2346 47.7777 17.6741C47.1199 18.1136 46.6072 18.7384 46.3045 19.4693C46.0017 20.2002 45.9225 21.0044 46.0769 21.7804C46.2312 22.5563 46.6122 23.269 47.1716 23.8284C47.731 24.3878 48.4437 24.7688 49.2196 24.9231C49.9956 25.0775 50.7998 24.9983 51.5307 24.6955C52.2616 24.3928 52.8863 23.8801 53.3259 23.2223C53.7654 22.5645 54 21.7911 54 21C54 19.9391 53.5786 18.9217 52.8284 18.1716C52.0783 17.4214 51.0609 17 50 17ZM50 23C49.6044 23 49.2178 22.8827 48.8889 22.6629C48.56 22.4432 48.3036 22.1308 48.1522 21.7654C48.0009 21.3999 47.9613 20.9978 48.0384 20.6098C48.1156 20.2219 48.3061 19.8655 48.5858 19.5858C48.8655 19.3061 49.2219 19.1156 49.6098 19.0384C49.9978 18.9613 50.3999 19.0009 50.7654 19.1522C51.1308 19.3036 51.4432 19.56 51.6629 19.8889C51.8827 20.2178 52 20.6044 52 21C52 21.5304 51.7893 22.0391 51.4142 22.4142C51.0391 22.7893 50.5304 23 50 23Z" fill="#3D9AE2"/>
<path d="M51 20H49V22H51V20Z" fill="#3D9AE2"/>
<path d="M43 20H41V22H43V20Z" fill="#3D9AE2"/>
<path d="M44.016 26.25L42.693 27.75C43.6064 28.5554 44.7822 28.9998 46 28.9998C47.2177 28.9998 48.3936 28.5554 49.307 27.75L47.984 26.25C47.429 26.7184 46.7262 26.9754 46 26.9754C45.2738 26.9754 44.571 26.7184 44.016 26.25V26.25Z" fill="#3D9AE2"/>
<path d="M30.5 39.6L29.5 41.33C30.2601 41.7688 31.1223 41.9999 32 41.9999C32.8777 41.9999 33.7399 41.7688 34.5 41.33L33.5 39.6C33.042 39.8575 32.5254 39.9928 32 39.9928C31.4746 39.9928 30.958 39.8575 30.5 39.6Z" fill="#3D9AE2"/>
<path d="M35 36H33V38H35V36Z" fill="#3D9AE2"/>
<path d="M31 36H29V38H31V36Z" fill="#3D9AE2"/>
</svg>
